# xmcd
#
# Track frame offsets:
#	150
#	11269
#	36928
#	49147
#	60705
#	75902
#	88540
#	112573
#	122422
#	149565
#	165257
#
# Disc length: 2392 seconds
#
# Revision: 0
# Processed by: cddbd v1.5.2PL0 Copyright (c) Steve Scherf et al.
# Submitted via: audiograbber 1.83.01
#
DISCID=7609560b
DTITLE=The Train Wrecks - Whiskey and War
DYEAR=2007
DGENRE=Alt-Country
TTITLE0=She Was the One
TTITLE1=The Ghost of Tom Joad
TTITLE2=Brand New Day
TTITLE3=Whiskey Ain't My Friend (No More)
TTITLE4=Texas Bound
TTITLE5=Isaak
TTITLE6=Unfiltered Cigarettes
TTITLE7=No Depression
TTITLE8=Desert Gunfire
TTITLE9=In the Shade
TTITLE10=Jet Pilot
EXTD=
EXTT0=
EXTT1=
EXTT2=
EXTT3=
EXTT4=
EXTT5=
EXTT6=
EXTT7=
EXTT8=
EXTT9=
EXTT10=
PLAYORDER=
